<svg width="1900" height="452" viewBox="0 0 1900 452" fill="none" xmlns="http://www.w3.org/2000/svg">
<g clip-path="url(#clip0_9_553)">
<path d="M40.3127 109.739L118.921 46.4546" stroke="white" stroke-width="0.5" stroke-miterlimit="10"/>
<path d="M22.7689 135.867L151.375 32.3306" stroke="white" stroke-width="0.5" stroke-miterlimit="10"/>
<path d="M13.2535 155.531L175.8 24.6702" stroke="white" stroke-width="0.5" stroke-miterlimit="10"/>
<path d="M7.3277 172.323L196.657 19.8994" stroke="white" stroke-width="0.5" stroke-miterlimit="10"/>
<path d="M3.58948 187.319L215.285 16.8899" stroke="white" stroke-width="0.5" stroke-miterlimit="10"/>
<path d="M1.42303 201.084L232.382 15.1458" stroke="white" stroke-width="0.5" stroke-miterlimit="10"/>
<path d="M0.424744 213.891L248.291 14.3418" stroke="white" stroke-width="0.5" stroke-miterlimit="10"/>
<path d="M263.244 14.3079L0.382324 225.929" stroke="white" stroke-width="0.5" stroke-miterlimit="10"/>
<path d="M1.14697 237.334L277.41 14.9233" stroke="white" stroke-width="0.5" stroke-miterlimit="10"/>
<path d="M2.59125 248.158L290.855 16.0862" stroke="white" stroke-width="0.5" stroke-miterlimit="10"/>
<path d="M4.65149 258.52L303.726 17.7449" stroke="white" stroke-width="0.5" stroke-miterlimit="10"/>
<path d="M7.26398 268.421L316.024 19.8481" stroke="white" stroke-width="0.5" stroke-miterlimit="10"/>
<path d="M10.3649 277.928L327.833 22.3445" stroke="white" stroke-width="0.5" stroke-miterlimit="10"/>
<path d="M13.9332 287.059L339.175 25.2173" stroke="white" stroke-width="0.5" stroke-miterlimit="10"/>
<path d="M17.9474 295.848L350.092 28.4319" stroke="white" stroke-width="0.5" stroke-miterlimit="10"/>
<path d="M22.3441 304.295L360.585 31.9885" stroke="white" stroke-width="0.5" stroke-miterlimit="10"/>
<path d="M27.1442 312.452L370.716 35.8359" stroke="white" stroke-width="0.5" stroke-miterlimit="10"/>
<path d="M32.2842 320.317L380.486 39.991" stroke="white" stroke-width="0.5" stroke-miterlimit="10"/>
<path d="M37.764 327.909L389.916 44.4026" stroke="white" stroke-width="0.5" stroke-miterlimit="10"/>
<path d="M43.5837 335.228L399.007 49.0879" stroke="white" stroke-width="0.5" stroke-miterlimit="10"/>
<path d="M49.7432 342.273L407.779 54.0466" stroke="white" stroke-width="0.5" stroke-miterlimit="10"/>
<path d="M56.2 349.078L416.211 59.2449" stroke="white" stroke-width="0.5" stroke-miterlimit="10"/>
<path d="M62.9754 355.645L424.367 64.6995" stroke="white" stroke-width="0.5" stroke-miterlimit="10"/>
<path d="M70.0695 361.937L432.183 70.4106" stroke="white" stroke-width="0.5" stroke-miterlimit="10"/>
<path d="M439.702 76.3613L77.4608 367.99" stroke="white" stroke-width="0.5" stroke-miterlimit="10"/>
<path d="M85.1495 373.804L446.924 82.5513" stroke="white" stroke-width="0.5" stroke-miterlimit="10"/>
<path d="M93.1569 379.379L453.848 88.9978" stroke="white" stroke-width="0.5" stroke-miterlimit="10"/>
<path d="M101.483 384.679L460.432 95.6836" stroke="white" stroke-width="0.5" stroke-miterlimit="10"/>
<path d="M110.106 389.741L466.719 102.643" stroke="white" stroke-width="0.5" stroke-miterlimit="10"/>
<path d="M119.048 394.546L472.687 109.842" stroke="white" stroke-width="0.5" stroke-miterlimit="10"/>
<path d="M128.33 399.094L478.337 117.297" stroke="white" stroke-width="0.5" stroke-miterlimit="10"/>
<path d="M137.951 403.352L483.626 125.06" stroke="white" stroke-width="0.5" stroke-miterlimit="10"/>
<path d="M147.913 407.319L488.553 133.08" stroke="white" stroke-width="0.5" stroke-miterlimit="10"/>
<path d="M158.256 410.995L493.141 141.407" stroke="white" stroke-width="0.5" stroke-miterlimit="10"/>
<path d="M169.004 414.364L497.325 150.042" stroke="white" stroke-width="0.5" stroke-miterlimit="10"/>
<path d="M180.133 417.407L501.085 159.02" stroke="white" stroke-width="0.5" stroke-miterlimit="10"/>
<path d="M191.751 420.058L504.398 168.373" stroke="white" stroke-width="0.5" stroke-miterlimit="10"/>
<path d="M203.836 422.349L507.223 178.085" stroke="white" stroke-width="0.5" stroke-miterlimit="10"/>
<path d="M216.432 424.196L509.517 188.242" stroke="white" stroke-width="0.5" stroke-miterlimit="10"/>
<path d="M229.621 425.581L511.258 198.861" stroke="white" stroke-width="0.5" stroke-miterlimit="10"/>
<path d="M243.469 426.453L512.32 210.01" stroke="white" stroke-width="0.5" stroke-miterlimit="10"/>
<path d="M258.082 426.692L512.618 221.774" stroke="white" stroke-width="0.5" stroke-miterlimit="10"/>
<path d="M273.566 426.248L512.066 234.222" stroke="white" stroke-width="0.5" stroke-miterlimit="10"/>
<path d="M290.09 424.948L510.451 247.543" stroke="white" stroke-width="0.5" stroke-miterlimit="10"/>
<path d="M307.995 422.537L507.456 261.94" stroke="white" stroke-width="0.5" stroke-miterlimit="10"/>
<path d="M327.791 418.604L502.571 277.894" stroke="white" stroke-width="0.5" stroke-miterlimit="10"/>
<path d="M350.411 412.397L494.883 296.088" stroke="white" stroke-width="0.5" stroke-miterlimit="10"/>
<path d="M378.341 401.915L481.863 318.59" stroke="white" stroke-width="0.5" stroke-miterlimit="10"/>
<g opacity="0.5" clip-path="url(#clip1_9_553)">
<path fill-rule="evenodd" clip-rule="evenodd" d="M989.304 41.3207C989.249 41.7059 989.116 42.0766 988.913 42.4115C988.71 42.7465 988.441 43.039 988.121 43.2722C979.646 51.5074 971.178 59.7492 962.716 67.9974C961.353 69.344 960.35 69.3049 959.047 67.9974C957.109 65.9679 955.104 64.0164 953.032 62.143C951.408 60.6989 951.628 59.567 953.132 58.1425C958.265 53.2442 963.158 48.1899 968.431 43.3502C969.895 41.9647 969.995 41.2426 968.431 39.8181C963.258 34.9784 958.265 29.9241 953.112 25.0649C951.448 23.5037 951.468 22.3523 953.112 20.8692C955.117 19.0738 957.122 17.1419 958.967 15.1709C960.25 13.8439 961.293 13.7463 962.656 15.0733C971.171 23.4126 979.7 31.7259 988.241 40.0132C988.635 40.4172 988.991 40.8548 989.304 41.3207V41.3207ZM960.892 65.3629C961.433 64.8751 961.834 64.5238 962.215 64.153C969.433 57.1082 976.612 50.0438 983.91 43.077C985.194 41.8476 985.254 41.1256 983.91 39.9547C977.554 33.827 971.218 27.6603 964.902 21.3766C960.892 17.4736 960.892 17.5712 957.042 21.3766C955.759 22.606 955.739 23.3281 957.042 24.4989C962.315 29.4947 967.448 34.6271 972.702 39.6619C974.145 41.028 974.186 42.0037 972.702 43.4088C968.01 47.8386 963.438 52.3661 958.847 56.8935C955.498 60.172 955.498 60.1915 958.987 63.5481C959.568 64.153 960.25 64.7385 960.892 65.3629Z" fill="url(#paint0_linear_9_553)"/>
<path fill-rule="evenodd" clip-rule="evenodd" d="M917 22.9184C917.08 22.2878 917.411 21.713 917.922 21.3182C920.148 19.1715 922.374 17.0249 924.559 14.8588C924.745 14.605 924.99 14.3981 925.274 14.2553C925.558 14.1126 925.873 14.0381 926.193 14.0381C926.513 14.0381 926.828 14.1126 927.113 14.2553C927.397 14.3981 927.642 14.605 927.827 14.8588C936.409 23.2501 945.005 31.6155 953.613 39.9548C953.87 40.1357 954.079 40.3733 954.223 40.6481C954.367 40.9229 954.442 41.227 954.442 41.5355C954.442 41.844 954.367 42.1481 954.223 42.4229C954.079 42.6977 953.87 42.9353 953.613 43.1162C944.991 51.4555 936.403 59.8144 927.848 68.1927C927.663 68.4504 927.417 68.6608 927.131 68.8061C926.844 68.9514 926.526 69.0272 926.203 69.0272C925.88 69.0272 925.562 68.9514 925.276 68.8061C924.99 68.6608 924.744 68.4504 924.559 68.1927C922.554 66.1437 920.549 64.0751 918.303 62.1236C916.719 60.699 916.739 59.6257 918.303 58.2206C923.517 53.2834 928.569 48.2096 933.803 43.2723C935.146 41.9843 935.226 41.3208 933.803 39.9158C928.65 35.0761 923.617 30.1584 918.564 25.1235C917.902 24.421 917.04 23.9331 917 22.9184ZM925.923 65.1874C926.845 65.1874 927.166 64.5239 927.607 64.0946C934.845 57.0693 942.024 50.0049 949.322 43.0381C950.666 41.7502 950.465 41.0866 949.322 39.9158C942.846 33.8271 936.57 27.6605 930.254 21.5133C926.063 17.4347 926.103 17.4933 921.993 21.5133C920.85 22.6647 921.05 23.2111 922.113 24.2259C927.306 29.1826 932.339 34.276 937.592 39.1742C939.457 40.9305 939.317 42.0429 937.492 43.7407C932.319 48.5608 927.306 53.4981 922.253 58.5329C921.772 59.0012 920.629 59.5867 921.09 60.1136C922.574 62.0065 924.339 63.5872 925.923 65.1874Z" fill="url(#paint1_linear_9_553)"/>
<path fill-rule="evenodd" clip-rule="evenodd" d="M1005 41.4768C1004.4 40.8719 1003.94 40.345 1003.42 39.8571C998.347 34.9199 993.394 29.9436 988.161 25.0844C986.457 23.4647 986.377 22.2547 988.161 20.6936C989.946 19.1324 992.171 16.9858 994.056 15.0343C995.219 13.8439 996.222 13.5902 997.525 14.8782C1006.12 23.2565 1014.72 31.6153 1023.33 39.9547C1023.59 40.1356 1023.8 40.3732 1023.94 40.648C1024.08 40.9227 1024.16 41.2269 1024.16 41.5354C1024.16 41.8439 1024.08 42.148 1023.94 42.4228C1023.8 42.6976 1023.59 42.9352 1023.33 43.1161C1014.79 51.3903 1006.27 59.6841 997.786 67.9975C996.422 69.344 995.4 69.2659 994.116 67.9975C992.111 66.046 990.106 63.9774 988.101 62.143C986.437 60.6794 986.637 59.5866 988.101 58.24C993.294 53.3028 998.407 48.268 1003.54 43.2722C1004 42.6087 1004.46 42.0818 1005 41.4768ZM995.6 65.1873C996.522 65.1873 996.863 64.5433 997.304 64.114C1004.6 57.0301 1011.86 49.8877 1019.22 42.8819C1020.64 41.5159 1019.92 40.9304 1018.94 39.9547C1012.6 33.827 1006.29 27.6864 999.991 21.5327C995.76 17.4151 995.821 17.4541 991.71 21.5327C990.567 22.6841 990.768 23.2695 991.71 24.2648C996.783 29.0849 1001.74 34.0222 1006.77 38.8618C1009.4 41.3988 1009.42 41.4573 1006.77 43.9357C1001.78 48.8144 996.743 53.6931 991.75 58.5718C991.269 59.0597 990.166 59.6841 990.567 60.1525C992.292 62.0064 994.056 63.6066 995.62 65.1873H995.6Z" fill="url(#paint2_linear_9_553)"/>
<path fill-rule="evenodd" clip-rule="evenodd" d="M1030.93 14C1031.79 14 1032.23 14.5659 1032.73 15.0733C1041.2 23.2825 1049.66 31.4983 1058.14 39.7205C1058.44 39.9127 1058.7 40.1766 1058.87 40.4879C1059.04 40.7992 1059.13 41.1478 1059.13 41.5017C1059.13 41.8555 1059.03 42.2032 1058.86 42.5126C1058.68 42.8221 1058.43 43.0833 1058.12 43.2722C1049.63 51.4684 1041.18 59.6972 1032.75 67.9584C1031.41 69.2854 1030.41 69.3245 1029.11 67.9584C1027.33 66.0181 1025.43 64.1806 1023.43 62.4552C1021.43 60.777 1021.43 59.5085 1023.43 57.6936C1028.56 52.932 1033.46 47.9362 1038.53 43.1551C1039.91 41.8476 1039.99 41.2036 1038.53 39.8181C1033.36 34.9589 1028.4 29.9241 1023.25 25.0649C1021.53 23.4452 1021.43 22.2743 1023.25 20.6936C1025.08 19.1129 1027.06 16.9467 1029.07 15.0538C1029.63 14.5659 1030.07 14 1030.93 14ZM1025.64 22.9963C1026.16 23.5623 1026.64 24.0892 1027.16 24.5965L1041.2 38.2569C1044.59 41.5159 1044.57 41.4964 1041.2 44.6773C1036.38 49.3413 1031.55 54.0249 1026.8 58.7474C1026.32 59.1963 1025.06 59.6256 1025.92 60.5818C1027.32 62.1235 1028.85 63.5481 1030.39 64.9531C1031.11 65.6166 1031.53 64.7775 1031.93 64.3872C1039.35 57.1863 1046.75 49.9463 1054.19 42.7648C1055.05 41.9257 1055.37 41.3988 1054.33 40.4035C1046.84 33.2091 1039.4 25.93 1031.99 18.5665C1031.29 17.8834 1030.77 17.6298 1029.99 18.5665C1028.8 19.8154 1027.52 20.9863 1026.3 22.1962C1026.06 22.4504 1025.84 22.7175 1025.64 22.9963V22.9963Z" fill="url(#paint3_linear_9_553)"/>
</g>
<g clip-path="url(#clip2_9_553)">
<path d="M755 187.87C754.122 187.87 753.263 187.61 752.533 187.122C751.803 186.634 751.234 185.94 750.898 185.129C750.562 184.318 750.474 183.425 750.645 182.564C750.817 181.703 751.239 180.911 751.86 180.29C752.481 179.669 753.272 179.247 754.134 179.075C754.995 178.904 755.888 178.992 756.699 179.328C757.51 179.664 758.204 180.233 758.692 180.963C759.18 181.693 759.44 182.552 759.44 183.43C759.441 184.013 759.327 184.591 759.105 185.131C758.882 185.67 758.555 186.16 758.142 186.572C757.73 186.985 757.24 187.312 756.701 187.535C756.161 187.757 755.583 187.871 755 187.87Z" fill="white"/>
<path d="M755 213.76C754.124 213.758 753.269 213.496 752.542 213.008C751.814 212.52 751.248 211.828 750.914 211.018C750.581 210.209 750.494 209.318 750.666 208.46C750.838 207.601 751.261 206.812 751.881 206.194C752.501 205.575 753.29 205.154 754.149 204.984C755.008 204.814 755.899 204.902 756.708 205.238C757.516 205.574 758.208 206.141 758.694 206.87C759.18 207.598 759.44 208.454 759.44 209.33C759.44 209.912 759.325 210.489 759.102 211.027C758.879 211.566 758.551 212.054 758.139 212.466C757.726 212.877 757.237 213.204 756.698 213.426C756.16 213.648 755.583 213.761 755 213.76Z" fill="white"/>
<path d="M755 239.66C754.121 239.66 753.263 239.399 752.532 238.911C751.802 238.423 751.233 237.729 750.897 236.917C750.561 236.105 750.474 235.212 750.646 234.35C750.818 233.489 751.242 232.697 751.864 232.077C752.486 231.456 753.278 231.034 754.14 230.864C755.002 230.694 755.895 230.783 756.706 231.121C757.517 231.458 758.21 232.029 758.697 232.761C759.183 233.492 759.442 234.351 759.44 235.23C759.44 235.813 759.325 236.39 759.102 236.928C758.879 237.466 758.551 237.955 758.139 238.366C757.727 238.778 757.237 239.104 756.698 239.326C756.16 239.548 755.583 239.661 755 239.66Z" fill="white"/>
<path d="M755 265.56C754.121 265.56 753.263 265.299 752.532 264.811C751.802 264.323 751.233 263.629 750.897 262.817C750.561 262.005 750.474 261.112 750.646 260.25C750.818 259.388 751.242 258.597 751.864 257.977C752.486 257.356 753.278 256.934 754.14 256.764C755.002 256.594 755.895 256.683 756.706 257.021C757.517 257.358 758.21 257.929 758.697 258.66C759.183 259.392 759.442 260.251 759.44 261.13C759.44 261.713 759.325 262.289 759.102 262.828C758.879 263.366 758.551 263.854 758.139 264.266C757.727 264.677 757.237 265.004 756.698 265.226C756.16 265.448 755.583 265.561 755 265.56V265.56Z" fill="white"/>
<path d="M755 291.46C754.122 291.46 753.263 291.2 752.533 290.712C751.803 290.224 751.234 289.53 750.898 288.719C750.562 287.908 750.474 287.015 750.645 286.154C750.817 285.293 751.239 284.501 751.86 283.881C752.481 283.26 753.272 282.837 754.134 282.665C754.995 282.494 755.888 282.582 756.699 282.918C757.51 283.254 758.204 283.823 758.692 284.553C759.18 285.284 759.44 286.142 759.44 287.02C759.441 287.604 759.327 288.181 759.105 288.721C758.882 289.26 758.555 289.75 758.142 290.163C757.73 290.575 757.24 290.902 756.701 291.125C756.161 291.347 755.583 291.461 755 291.46Z" fill="white"/>
<path d="M755 317.35C754.121 317.35 753.263 317.089 752.532 316.601C751.802 316.113 751.233 315.419 750.897 314.607C750.561 313.795 750.474 312.902 750.646 312.04C750.818 311.179 751.242 310.387 751.864 309.767C752.486 309.146 753.278 308.724 754.14 308.554C755.002 308.384 755.895 308.473 756.706 308.811C757.517 309.148 758.21 309.719 758.697 310.451C759.183 311.182 759.442 312.041 759.44 312.92C759.44 313.503 759.325 314.079 759.102 314.618C758.879 315.156 758.551 315.645 758.139 316.056C757.727 316.468 757.237 316.794 756.698 317.016C756.16 317.238 755.583 317.351 755 317.35Z" fill="white"/>
<path d="M755 343.25C754.122 343.25 753.263 342.989 752.533 342.502C751.803 342.014 751.234 341.32 750.898 340.509C750.562 339.698 750.474 338.805 750.645 337.944C750.817 337.082 751.239 336.291 751.86 335.67C752.481 335.049 753.272 334.627 754.134 334.455C754.995 334.284 755.888 334.372 756.699 334.708C757.51 335.044 758.204 335.613 758.692 336.343C759.18 337.073 759.44 337.932 759.44 338.81C759.441 339.393 759.327 339.971 759.105 340.511C758.882 341.05 758.555 341.54 758.142 341.952C757.73 342.365 757.24 342.692 756.701 342.915C756.161 343.137 755.583 343.251 755 343.25V343.25Z" fill="white"/>
<path d="M755 369.15C754.122 369.15 753.263 368.89 752.533 368.402C751.803 367.914 751.234 367.22 750.898 366.409C750.562 365.598 750.474 364.705 750.645 363.844C750.817 362.983 751.239 362.191 751.86 361.57C752.481 360.95 753.272 360.527 754.134 360.355C754.995 360.184 755.888 360.272 756.699 360.608C757.51 360.944 758.204 361.513 758.692 362.243C759.18 362.973 759.44 363.832 759.44 364.71C759.441 365.293 759.327 365.871 759.105 366.411C758.882 366.95 758.555 367.44 758.142 367.853C757.73 368.265 757.24 368.592 756.701 368.815C756.161 369.037 755.583 369.151 755 369.15Z" fill="white"/>
<path d="M729.12 187.87C728.242 187.87 727.383 187.61 726.653 187.122C725.923 186.634 725.354 185.94 725.018 185.129C724.682 184.318 724.594 183.425 724.765 182.564C724.937 181.703 725.359 180.911 725.98 180.29C726.601 179.669 727.392 179.247 728.254 179.075C729.115 178.904 730.008 178.992 730.819 179.328C731.63 179.664 732.324 180.233 732.812 180.963C733.3 181.693 733.56 182.552 733.56 183.43C733.56 184.013 733.445 184.59 733.222 185.129C732.999 185.668 732.672 186.157 732.259 186.57C731.427 187.402 730.297 187.87 729.12 187.87Z" fill="white"/>
<path d="M729.12 213.76C728.244 213.758 727.389 213.496 726.662 213.008C725.934 212.52 725.368 211.828 725.034 211.018C724.701 210.209 724.614 209.318 724.786 208.46C724.958 207.601 725.381 206.812 726.001 206.194C726.621 205.575 727.41 205.154 728.269 204.984C729.128 204.814 730.019 204.902 730.828 205.238C731.636 205.574 732.328 206.141 732.814 206.87C733.3 207.598 733.56 208.454 733.56 209.33C733.56 209.912 733.445 210.489 733.222 211.027C732.999 211.566 732.671 212.054 732.259 212.466C731.846 212.877 731.357 213.204 730.818 213.426C730.28 213.648 729.703 213.761 729.12 213.76V213.76Z" fill="white"/>
<path d="M729.12 239.66C728.241 239.66 727.383 239.399 726.652 238.911C725.922 238.423 725.353 237.729 725.017 236.917C724.681 236.105 724.594 235.212 724.766 234.35C724.938 233.489 725.362 232.697 725.984 232.077C726.606 231.456 727.398 231.034 728.26 230.864C729.122 230.694 730.015 230.783 730.826 231.121C731.637 231.458 732.33 232.029 732.817 232.761C733.303 233.492 733.562 234.351 733.56 235.23C733.56 235.813 733.445 236.39 733.222 236.928C732.999 237.466 732.671 237.955 732.259 238.366C731.847 238.778 731.357 239.104 730.818 239.326C730.28 239.548 729.703 239.661 729.12 239.66V239.66Z" fill="white"/>
<path d="M729.12 265.56C728.241 265.56 727.383 265.299 726.652 264.811C725.922 264.323 725.353 263.629 725.017 262.817C724.681 262.005 724.594 261.112 724.766 260.25C724.938 259.388 725.362 258.597 725.984 257.977C726.606 257.356 727.398 256.934 728.26 256.764C729.122 256.594 730.015 256.683 730.826 257.021C731.637 257.358 732.33 257.929 732.817 258.66C733.303 259.392 733.562 260.251 733.56 261.13C733.557 262.306 733.088 263.433 732.256 264.263C731.424 265.094 730.296 265.56 729.12 265.56V265.56Z" fill="white"/>
<path d="M729.12 291.46C728.243 291.46 727.385 291.2 726.655 290.713C725.926 290.226 725.357 289.534 725.02 288.724C724.683 287.914 724.594 287.022 724.764 286.161C724.934 285.3 725.355 284.509 725.973 283.888C726.592 283.266 727.382 282.841 728.242 282.668C729.102 282.494 729.994 282.579 730.805 282.912C731.617 283.245 732.312 283.811 732.802 284.539C733.292 285.266 733.556 286.123 733.56 287C733.563 287.585 733.45 288.164 733.228 288.705C733.006 289.246 732.679 289.738 732.267 290.153C731.854 290.567 731.364 290.896 730.824 291.12C730.284 291.345 729.705 291.46 729.12 291.46V291.46Z" fill="white"/>
<path d="M729.12 317.35C728.241 317.35 727.383 317.089 726.652 316.601C725.922 316.113 725.353 315.419 725.017 314.607C724.681 313.795 724.594 312.902 724.766 312.04C724.938 311.179 725.362 310.387 725.984 309.767C726.606 309.146 727.398 308.724 728.26 308.554C729.122 308.384 730.015 308.473 730.826 308.811C731.637 309.148 732.33 309.719 732.817 310.451C733.303 311.182 733.562 312.041 733.56 312.92C733.56 313.503 733.445 314.079 733.222 314.618C732.999 315.156 732.671 315.645 732.259 316.056C731.847 316.468 731.357 316.794 730.818 317.016C730.28 317.238 729.703 317.351 729.12 317.35V317.35Z" fill="white"/>
<path d="M729.12 343.25C728.242 343.25 727.383 342.989 726.653 342.502C725.923 342.014 725.354 341.32 725.018 340.509C724.682 339.698 724.594 338.805 724.765 337.944C724.937 337.082 725.359 336.291 725.98 335.67C726.601 335.049 727.392 334.627 728.254 334.455C729.115 334.284 730.008 334.372 730.819 334.708C731.63 335.044 732.324 335.613 732.812 336.343C733.3 337.073 733.56 337.932 733.56 338.81C733.56 339.987 733.092 341.117 732.259 341.949C731.427 342.782 730.297 343.25 729.12 343.25Z" fill="white"/>
<path d="M729.12 369.15C728.242 369.15 727.383 368.89 726.653 368.402C725.923 367.914 725.354 367.22 725.018 366.409C724.682 365.598 724.594 364.705 724.765 363.844C724.937 362.983 725.359 362.191 725.98 361.57C726.601 360.95 727.392 360.527 728.254 360.355C729.115 360.184 730.008 360.272 730.819 360.608C731.63 360.944 732.324 361.513 732.812 362.243C733.3 362.973 733.56 363.832 733.56 364.71C733.56 365.888 733.092 367.017 732.259 367.85C731.427 368.682 730.297 369.15 729.12 369.15V369.15Z" fill="white"/>
<path d="M703.23 187.87C702.351 187.872 701.492 187.613 700.761 187.127C700.029 186.64 699.458 185.947 699.121 185.136C698.783 184.325 698.694 183.432 698.864 182.57C699.034 181.708 699.456 180.916 700.077 180.294C700.697 179.672 701.489 179.248 702.35 179.076C703.212 178.904 704.105 178.991 704.917 179.327C705.729 179.663 706.423 180.232 706.911 180.962C707.399 181.693 707.66 182.551 707.66 183.43C707.66 184.606 707.194 185.734 706.363 186.566C705.533 187.398 704.406 187.867 703.23 187.87Z" fill="white"/>
<path d="M703.23 213.76C702.354 213.76 701.497 213.5 700.769 213.013C700.04 212.527 699.473 211.835 699.137 211.025C698.802 210.216 698.714 209.325 698.885 208.466C699.056 207.606 699.478 206.817 700.098 206.197C700.717 205.578 701.506 205.156 702.366 204.985C703.225 204.814 704.116 204.902 704.925 205.237C705.735 205.572 706.427 206.14 706.913 206.869C707.4 207.597 707.66 208.454 707.66 209.33C707.66 210.505 707.193 211.632 706.363 212.462C705.532 213.293 704.405 213.76 703.23 213.76V213.76Z" fill="white"/>
<path d="M703.23 239.66C702.351 239.662 701.491 239.403 700.76 238.916C700.028 238.429 699.457 237.735 699.12 236.924C698.783 236.112 698.694 235.218 698.865 234.356C699.036 233.494 699.459 232.702 700.08 232.08C700.702 231.459 701.494 231.036 702.356 230.865C703.218 230.694 704.112 230.783 704.924 231.12C705.735 231.457 706.429 232.028 706.916 232.76C707.403 233.491 707.662 234.351 707.66 235.23C707.66 236.405 707.193 237.532 706.363 238.363C705.532 239.193 704.405 239.66 703.23 239.66V239.66Z" fill="white"/>
<path d="M703.23 265.56C702.351 265.562 701.491 265.303 700.76 264.816C700.028 264.329 699.457 263.635 699.12 262.824C698.783 262.012 698.694 261.118 698.865 260.256C699.036 259.394 699.459 258.602 700.08 257.98C700.702 257.359 701.494 256.936 702.356 256.765C703.218 256.594 704.112 256.683 704.924 257.02C705.735 257.357 706.429 257.928 706.916 258.659C707.403 259.391 707.662 260.251 707.66 261.13C707.657 262.304 707.19 263.429 706.36 264.259C705.529 265.09 704.404 265.557 703.23 265.56V265.56Z" fill="white"/>
<path d="M703.23 291.46C702.352 291.462 701.494 291.204 700.763 290.718C700.032 290.232 699.461 289.541 699.123 288.731C698.785 287.921 698.694 287.029 698.863 286.167C699.031 285.306 699.451 284.514 700.07 283.891C700.688 283.268 701.478 282.843 702.338 282.669C703.198 282.494 704.091 282.579 704.903 282.911C705.715 283.244 706.411 283.81 706.901 284.538C707.392 285.266 707.656 286.122 707.66 287C707.663 287.584 707.55 288.163 707.329 288.703C707.107 289.243 706.782 289.735 706.37 290.149C705.959 290.563 705.469 290.892 704.931 291.117C704.392 291.342 703.814 291.459 703.23 291.46V291.46Z" fill="white"/>
<path d="M703.23 317.35C702.351 317.352 701.491 317.093 700.76 316.606C700.028 316.119 699.457 315.425 699.12 314.614C698.783 313.802 698.694 312.908 698.865 312.046C699.036 311.184 699.459 310.392 700.08 309.77C700.702 309.149 701.494 308.726 702.356 308.555C703.218 308.384 704.112 308.473 704.924 308.81C705.735 309.147 706.429 309.718 706.916 310.449C707.403 311.181 707.662 312.041 707.66 312.92C707.66 314.095 707.193 315.222 706.363 316.052C705.532 316.883 704.405 317.35 703.23 317.35V317.35Z" fill="white"/>
<path d="M703.23 343.25C702.351 343.252 701.492 342.993 700.761 342.507C700.029 342.02 699.458 341.327 699.121 340.516C698.783 339.705 698.694 338.812 698.864 337.95C699.034 337.088 699.456 336.296 700.077 335.674C700.697 335.052 701.489 334.628 702.35 334.456C703.212 334.284 704.105 334.371 704.917 334.707C705.729 335.043 706.423 335.612 706.911 336.342C707.399 337.073 707.66 337.932 707.66 338.81C707.66 339.986 707.194 341.114 706.363 341.946C705.533 342.779 704.406 343.247 703.23 343.25Z" fill="white"/>
<path d="M703.23 369.15C702.351 369.152 701.492 368.893 700.761 368.407C700.029 367.92 699.458 367.227 699.121 366.416C698.783 365.605 698.694 364.712 698.864 363.85C699.034 362.988 699.456 362.196 700.077 361.574C700.697 360.952 701.489 360.528 702.35 360.356C703.212 360.184 704.105 360.271 704.917 360.607C705.729 360.943 706.423 361.512 706.911 362.242C707.399 362.973 707.66 363.831 707.66 364.71C707.66 365.886 707.194 367.014 706.363 367.846C705.533 368.678 704.406 369.147 703.23 369.15V369.15Z" fill="white"/>
<path d="M677.33 187.87C676.452 187.87 675.593 187.61 674.863 187.122C674.133 186.634 673.564 185.94 673.228 185.129C672.892 184.318 672.804 183.425 672.975 182.564C673.147 181.703 673.57 180.911 674.19 180.29C674.811 179.669 675.603 179.247 676.464 179.075C677.325 178.904 678.218 178.992 679.029 179.328C679.84 179.664 680.534 180.233 681.022 180.963C681.51 181.693 681.77 182.552 681.77 183.43C681.771 184.013 681.657 184.591 681.435 185.131C681.212 185.67 680.885 186.16 680.473 186.572C680.06 186.985 679.57 187.312 679.031 187.535C678.491 187.757 677.913 187.871 677.33 187.87V187.87Z" fill="white"/>
<path d="M677.33 213.76C676.454 213.758 675.599 213.496 674.872 213.008C674.144 212.52 673.578 211.828 673.244 211.018C672.911 210.209 672.824 209.318 672.996 208.46C673.168 207.601 673.591 206.812 674.211 206.194C674.831 205.575 675.62 205.154 676.479 204.984C677.339 204.814 678.229 204.902 679.038 205.238C679.847 205.574 680.538 206.141 681.024 206.87C681.51 207.598 681.77 208.454 681.77 209.33C681.77 209.912 681.655 210.489 681.432 211.027C681.209 211.566 680.881 212.054 680.469 212.466C680.057 212.877 679.567 213.204 679.028 213.426C678.49 213.648 677.913 213.761 677.33 213.76V213.76Z" fill="white"/>
<path d="M677.33 239.66C676.451 239.66 675.593 239.399 674.862 238.911C674.132 238.423 673.563 237.729 673.227 236.917C672.891 236.105 672.804 235.212 672.976 234.35C673.148 233.489 673.572 232.697 674.194 232.077C674.816 231.456 675.608 231.034 676.47 230.864C677.332 230.694 678.225 230.783 679.036 231.121C679.847 231.458 680.54 232.029 681.027 232.761C681.513 233.492 681.772 234.351 681.77 235.23C681.77 235.813 681.655 236.39 681.432 236.928C681.209 237.466 680.881 237.955 680.469 238.366C680.057 238.778 679.567 239.104 679.028 239.326C678.49 239.548 677.913 239.661 677.33 239.66V239.66Z" fill="white"/>
<path d="M677.33 265.56C676.451 265.56 675.593 265.299 674.862 264.811C674.132 264.323 673.563 263.629 673.227 262.817C672.891 262.005 672.804 261.112 672.976 260.25C673.148 259.388 673.572 258.597 674.194 257.977C674.816 257.356 675.608 256.934 676.47 256.764C677.332 256.594 678.225 256.683 679.036 257.021C679.847 257.358 680.54 257.929 681.027 258.66C681.513 259.392 681.772 260.251 681.77 261.13C681.77 261.713 681.655 262.289 681.432 262.828C681.209 263.366 680.881 263.854 680.469 264.266C680.057 264.677 679.567 265.004 679.028 265.226C678.49 265.448 677.913 265.561 677.33 265.56V265.56Z" fill="white"/>
<path d="M677.33 291.46C676.453 291.46 675.595 291.2 674.865 290.713C674.136 290.226 673.567 289.534 673.23 288.724C672.893 287.914 672.804 287.022 672.974 286.161C673.144 285.3 673.564 284.509 674.183 283.888C674.802 283.266 675.592 282.841 676.452 282.668C677.312 282.494 678.204 282.579 679.015 282.912C679.827 283.245 680.522 283.811 681.012 284.539C681.502 285.266 681.766 286.123 681.77 287C681.774 287.585 681.662 288.165 681.44 288.707C681.219 289.248 680.892 289.741 680.48 290.156C680.067 290.57 679.576 290.899 679.035 291.123C678.495 291.347 677.915 291.461 677.33 291.46V291.46Z" fill="white"/>
<path d="M677.33 317.35C676.451 317.35 675.593 317.089 674.862 316.601C674.132 316.113 673.563 315.419 673.227 314.607C672.891 313.795 672.804 312.902 672.976 312.04C673.148 311.179 673.572 310.387 674.194 309.767C674.816 309.146 675.608 308.724 676.47 308.554C677.332 308.384 678.225 308.473 679.036 308.811C679.847 309.148 680.54 309.719 681.027 310.451C681.513 311.182 681.772 312.041 681.77 312.92C681.77 313.503 681.655 314.079 681.432 314.618C681.209 315.156 680.881 315.645 680.469 316.056C680.057 316.468 679.567 316.794 679.028 317.016C678.49 317.238 677.913 317.351 677.33 317.35V317.35Z" fill="white"/>
<path d="M677.33 343.25C676.452 343.25 675.593 342.989 674.863 342.502C674.133 342.014 673.564 341.32 673.228 340.509C672.892 339.698 672.804 338.805 672.975 337.944C673.147 337.082 673.57 336.291 674.19 335.67C674.811 335.049 675.603 334.627 676.464 334.455C677.325 334.284 678.218 334.372 679.029 334.708C679.84 335.044 680.534 335.613 681.022 336.343C681.51 337.073 681.77 337.932 681.77 338.81C681.771 339.393 681.657 339.971 681.435 340.511C681.212 341.05 680.885 341.54 680.473 341.952C680.06 342.365 679.57 342.692 679.031 342.915C678.491 343.137 677.913 343.251 677.33 343.25V343.25Z" fill="white"/>
<path d="M677.33 369.15C676.452 369.15 675.593 368.89 674.863 368.402C674.133 367.914 673.564 367.22 673.228 366.409C672.892 365.598 672.804 364.705 672.975 363.844C673.147 362.983 673.57 362.191 674.19 361.57C674.811 360.95 675.603 360.527 676.464 360.355C677.325 360.184 678.218 360.272 679.029 360.608C679.84 360.944 680.534 361.513 681.022 362.243C681.51 362.973 681.77 363.832 681.77 364.71C681.771 365.293 681.657 365.871 681.435 366.411C681.212 366.95 680.885 367.44 680.473 367.853C680.06 368.265 679.57 368.592 679.031 368.815C678.491 369.037 677.913 369.151 677.33 369.15V369.15Z" fill="white"/>
<path d="M651.43 187.87C650.552 187.87 649.693 187.61 648.963 187.122C648.233 186.634 647.664 185.94 647.328 185.129C646.992 184.318 646.904 183.425 647.075 182.564C647.247 181.703 647.669 180.911 648.29 180.29C648.911 179.669 649.703 179.247 650.564 179.075C651.425 178.904 652.318 178.992 653.129 179.328C653.94 179.664 654.634 180.233 655.122 180.963C655.61 181.693 655.87 182.552 655.87 183.43C655.871 184.013 655.757 184.591 655.535 185.131C655.312 185.67 654.985 186.16 654.572 186.572C654.16 186.985 653.67 187.312 653.131 187.535C652.591 187.757 652.013 187.871 651.43 187.87V187.87Z" fill="white"/>
<path d="M651.43 213.76C650.554 213.758 649.699 213.496 648.972 213.008C648.244 212.52 647.678 211.828 647.344 211.018C647.011 210.209 646.924 209.318 647.096 208.46C647.268 207.601 647.691 206.812 648.311 206.194C648.931 205.575 649.72 205.154 650.579 204.984C651.438 204.814 652.329 204.902 653.138 205.238C653.946 205.574 654.638 206.141 655.124 206.87C655.61 207.598 655.87 208.454 655.87 209.33C655.87 209.912 655.755 210.489 655.532 211.027C655.309 211.566 654.981 212.054 654.569 212.466C654.157 212.877 653.667 213.204 653.128 213.426C652.59 213.648 652.013 213.761 651.43 213.76Z" fill="white"/>
<path d="M651.43 239.66C650.551 239.66 649.693 239.399 648.962 238.911C648.232 238.423 647.663 237.729 647.327 236.917C646.991 236.105 646.904 235.212 647.076 234.35C647.248 233.489 647.672 232.697 648.294 232.077C648.916 231.456 649.708 231.034 650.57 230.864C651.432 230.694 652.325 230.783 653.136 231.121C653.947 231.458 654.64 232.029 655.127 232.761C655.613 233.492 655.872 234.351 655.87 235.23C655.87 235.813 655.755 236.39 655.532 236.928C655.309 237.466 654.981 237.955 654.569 238.366C654.157 238.778 653.667 239.104 653.128 239.326C652.59 239.548 652.013 239.661 651.43 239.66Z" fill="white"/>
<path d="M651.43 265.56C650.551 265.56 649.693 265.299 648.962 264.811C648.232 264.323 647.663 263.629 647.327 262.817C646.991 262.005 646.904 261.112 647.076 260.25C647.248 259.388 647.672 258.597 648.294 257.977C648.916 257.356 649.708 256.934 650.57 256.764C651.432 256.594 652.325 256.683 653.136 257.021C653.947 257.358 654.64 257.929 655.127 258.66C655.613 259.392 655.872 260.251 655.87 261.13C655.87 261.713 655.755 262.289 655.532 262.828C655.309 263.366 654.981 263.854 654.569 264.266C654.157 264.677 653.667 265.004 653.128 265.226C652.59 265.448 652.013 265.561 651.43 265.56V265.56Z" fill="white"/>
<path d="M651.43 291.46C650.553 291.46 649.695 291.2 648.965 290.713C648.236 290.226 647.667 289.534 647.33 288.724C646.993 287.914 646.904 287.022 647.074 286.161C647.244 285.3 647.664 284.509 648.283 283.888C648.902 283.266 649.692 282.841 650.552 282.668C651.412 282.494 652.304 282.579 653.115 282.912C653.927 283.245 654.622 283.811 655.112 284.539C655.602 285.266 655.866 286.123 655.87 287C655.874 287.585 655.762 288.165 655.54 288.707C655.319 289.248 654.992 289.741 654.58 290.156C654.167 290.57 653.676 290.899 653.135 291.123C652.595 291.347 652.015 291.461 651.43 291.46V291.46Z" fill="white"/>
<path d="M651.43 317.35C650.551 317.35 649.693 317.089 648.962 316.601C648.232 316.113 647.663 315.419 647.327 314.607C646.991 313.795 646.904 312.902 647.076 312.04C647.248 311.179 647.672 310.387 648.294 309.767C648.916 309.146 649.708 308.724 650.57 308.554C651.432 308.384 652.325 308.473 653.136 308.811C653.947 309.148 654.64 309.719 655.127 310.451C655.613 311.182 655.872 312.041 655.87 312.92C655.87 313.503 655.755 314.079 655.532 314.618C655.309 315.156 654.981 315.645 654.569 316.056C654.157 316.468 653.667 316.794 653.128 317.016C652.59 317.238 652.013 317.351 651.43 317.35V317.35Z" fill="white"/>
<path d="M651.43 343.25C650.552 343.25 649.693 342.989 648.963 342.502C648.233 342.014 647.664 341.32 647.328 340.509C646.992 339.698 646.904 338.805 647.075 337.944C647.247 337.082 647.669 336.291 648.29 335.67C648.911 335.049 649.703 334.627 650.564 334.455C651.425 334.284 652.318 334.372 653.129 334.708C653.94 335.044 654.634 335.613 655.122 336.343C655.61 337.073 655.87 337.932 655.87 338.81C655.871 339.393 655.757 339.971 655.535 340.511C655.312 341.05 654.985 341.54 654.572 341.952C654.16 342.365 653.67 342.692 653.131 342.915C652.591 343.137 652.013 343.251 651.43 343.25V343.25Z" fill="white"/>
<path d="M651.43 369.15C650.552 369.15 649.693 368.89 648.963 368.402C648.233 367.914 647.664 367.22 647.328 366.409C646.992 365.598 646.904 364.705 647.075 363.844C647.247 362.983 647.669 362.191 648.29 361.57C648.911 360.95 649.703 360.527 650.564 360.355C651.425 360.184 652.318 360.272 653.129 360.608C653.94 360.944 654.634 361.513 655.122 362.243C655.61 362.973 655.87 363.832 655.87 364.71C655.871 365.293 655.757 365.871 655.535 366.411C655.312 366.95 654.985 367.44 654.572 367.853C654.16 368.265 653.67 368.592 653.131 368.815C652.591 369.037 652.013 369.151 651.43 369.15V369.15Z" fill="white"/>
</g>
<path d="M1714.73 46.6517L1662.26 11.5578L1658.09 74.5458L1714.73 46.6517Z" stroke="white" stroke-width="2" stroke-linecap="round" stroke-linejoin="round"/>
</g>
<defs>
<linearGradient id="paint0_linear_9_553" x1="989.304" y1="41.5159" x2="951.869" y2="41.5159" gradientUnits="userSpaceOnUse">
<stop stop-color="#FD5D17"/>
<stop offset="1" stop-color="#FE9364"/>
</linearGradient>
<linearGradient id="paint1_linear_9_553" x1="-61568.9" y1="90663.6" x2="-61568.9" y2="91691.4" gradientUnits="userSpaceOnUse">
<stop stop-color="#FE9364"/>
<stop offset="1" stop-color="#FE9364"/>
</linearGradient>
<linearGradient id="paint2_linear_9_553" x1="-61273.8" y1="88701" x2="-61273.8" y2="89724.9" gradientUnits="userSpaceOnUse">
<stop stop-color="#FD5D17"/>
<stop offset="1" stop-color="#FE9364"/>
</linearGradient>
<linearGradient id="paint3_linear_9_553" x1="-61075.2" y1="87760" x2="-61075.2" y2="88780.8" gradientUnits="userSpaceOnUse">
<stop stop-color="#FD5D17"/>
<stop offset="1" stop-color="#FE9364"/>
</linearGradient>
<clipPath id="clip0_9_553">
<rect width="1900" height="452" fill="white"/>
</clipPath>
<clipPath id="clip1_9_553">
<rect width="55.0317" height="142.142" fill="white" transform="translate(1059.14 14) rotate(90)"/>
</clipPath>
<clipPath id="clip2_9_553">
<rect width="112.46" height="190.15" fill="white" transform="translate(647 179)"/>
</clipPath>
</defs>
</svg>
