<svg width="304" height="57" viewBox="0 0 304 57" fill="none" xmlns="http://www.w3.org/2000/svg">
<g clip-path="url(#clip0_9_163)">
<path d="M102 42.73H105.9L101.51 34C102.661 33.4665 103.625 32.5989 104.276 31.5101C104.927 30.4213 105.236 29.1616 105.162 27.8951C105.087 26.6286 104.633 25.4138 103.859 24.4087C103.085 23.4037 102.026 22.655 100.82 22.26C100.063 22.0391 99.2782 21.9313 98.49 21.94H91.23V42.73H94.85V34.55H98L102 42.73ZM94.85 25H98.28C98.7266 24.9753 99.1736 25.042 99.5936 25.196C100.014 25.3499 100.398 25.5879 100.723 25.8954C101.048 26.2028 101.306 26.5733 101.483 26.9842C101.66 27.3951 101.751 27.8377 101.751 28.285C101.751 28.7323 101.66 29.1749 101.483 29.5858C101.306 29.9967 101.048 30.3672 100.723 30.6746C100.398 30.9821 100.014 31.2201 99.5936 31.374C99.1736 31.528 98.7266 31.5947 98.28 31.57H94.85V25Z" fill="white"/>
<path d="M17.78 21.9V42.73H14.35V28.41L8.87 38.51L3.35 28.41V42.73H0V21.9H3L8.9 32.58L14.77 21.9H17.78Z" fill="white"/>
<path d="M108.2 21.9H111.81V42.73H108.2V21.9Z" fill="white"/>
<path d="M42.5501 42.73V28.4L50.3501 42.73H53.5801V21.9H50.2301V36.21L42.4401 21.9H39.1801V42.73H42.5501Z" fill="white"/>
<path d="M33.27 42.73H37.18L30.18 21.9H26.71L19.78 42.73H23.56L25.11 37.43H31.72L33.27 42.73ZM26 34.34L28.4 26.13L30.8 34.34H26Z" fill="white"/>
<path d="M118.56 42.73V28.4L126.35 42.73H129.59V21.9H126.24V36.21L118.45 21.9H115.19V42.73H118.56Z" fill="white"/>
<path d="M66.49 14.35C66.49 14.27 66.49 14.19 66.49 14.11H66.25C65.4776 14.1087 64.7125 14.2603 63.999 14.5562C63.2854 14.8521 62.6376 15.2864 62.0928 15.834C61.548 16.3816 61.117 17.0317 60.8247 17.7467C60.5325 18.4617 60.3847 19.2276 60.39 20V20.24H60.63C61.4017 20.2387 62.1656 20.0852 62.8779 19.7884C63.5903 19.4916 64.2371 19.0572 64.7814 18.5101C65.3256 17.963 65.7567 17.314 66.0499 16.6002C66.3431 15.8863 66.4927 15.1217 66.49 14.35V14.35Z" fill="white"/>
<path d="M61.47 21.9H57V42.73H61.51C64.2757 42.7949 66.9594 41.788 69 39.92C70.9295 37.8672 71.9715 35.1363 71.9 32.32C71.9737 29.5033 70.9314 26.7716 69 24.72C66.9515 22.8377 64.251 21.8263 61.47 21.9V21.9ZM61.39 39.38H60.39V25.25H61.39C63.2975 25.1737 65.1595 25.8446 66.58 27.12C67.8569 28.5442 68.5309 30.4085 68.46 32.32C68.5321 34.2268 67.8617 36.0873 66.59 37.51C65.1643 38.7832 63.3001 39.4536 61.39 39.38V39.38Z" fill="white"/>
<path d="M85.36 42.73H89.27L82.27 21.9H78.8L71.87 42.73H75.65L77.2 37.43H83.81L85.36 42.73ZM78.1 34.34L80.5 26.13L82.91 34.34H78.1Z" fill="white"/>
<path d="M159.77 0V56.84" stroke="white" stroke-miterlimit="10"/>
<path fill-rule="evenodd" clip-rule="evenodd" d="M267.44 24.34C266.855 24.5582 266.253 24.7288 265.64 24.85C263.02 25.13 261.41 23.97 260.93 21.37C260.62 20.055 260.64 18.6837 260.989 17.3784C261.338 16.0731 262.005 14.8747 262.93 13.89C263.746 12.9523 264.894 12.3678 266.133 12.2596C267.371 12.1514 268.604 12.528 269.57 13.31C269.88 13.54 270.02 13.57 270.26 13.24C271.11 12.06 272.35 12.5 273.46 12.57C273.94 12.57 274.01 13.12 273.94 13.57C273.34 17.33 272.89 21.12 272.1 24.83C271.1 29.61 265.34 32.03 260.94 29.73C260.489 29.4596 260.163 29.0226 260.032 28.5136C259.901 28.0046 259.976 27.4644 260.24 27.01C260.77 25.75 261.42 25.42 262.57 25.86C263.249 26.1696 263.976 26.3591 264.72 26.42C266.25 26.45 267 26 267.44 24.34ZM265.7 19.22C265.7 19.45 265.7 19.67 265.7 19.9C265.7 20.5 265.91 21.06 266.53 21.22C267.15 21.38 267.6 20.91 267.87 20.42C268.415 19.3889 268.648 18.2213 268.54 17.06C268.54 16.8133 268.465 16.5724 268.323 16.3702C268.182 16.168 267.982 16.0143 267.75 15.93C267.2 15.74 266.83 16.11 266.52 16.5C265.93 17.2796 265.64 18.2445 265.7 19.22Z" fill="white"/>
<path fill-rule="evenodd" clip-rule="evenodd" d="M227.55 12.94C227.78 11.42 228.05 9.93998 228.24 8.39998C228.36 7.39998 228.85 6.84998 229.91 6.88998C230.61 6.88998 231.32 6.88998 232.03 6.88998C232.91 6.88998 233.23 7.30998 233.09 8.16998C232.55 11.52 232.04 14.87 231.51 18.22C231.26 19.84 230.99 21.46 230.75 23.08C230.65 23.73 230.6 24.47 229.82 24.56C229.04 24.65 227.82 25.06 227.1 24.17C226.67 23.63 226.48 23.8 226.1 24.06C222.71 26.17 219.22 24.3 219.1 20.32C218.923 18.1399 219.573 15.973 220.92 14.25C222.6 12.17 224.71 11.77 227.55 12.94ZM224 19.26C224 19.52 224 19.78 224 20.04C223.993 20.2865 224.061 20.5293 224.195 20.7363C224.329 20.9434 224.522 21.1051 224.75 21.2C224.987 21.2816 225.246 21.2714 225.475 21.1714C225.705 21.0714 225.888 20.8889 225.99 20.66C226.376 20.0871 226.64 19.4403 226.764 18.7604C226.888 18.0806 226.869 17.3824 226.71 16.71C226.44 15.71 225.64 15.6 224.93 16.36C224.25 17.1662 223.915 18.2085 224 19.26V19.26Z" fill="white"/>
<path fill-rule="evenodd" clip-rule="evenodd" d="M272.48 43.9C272.23 45.5 271.95 47 271.76 48.51C271.769 48.7184 271.732 48.9263 271.653 49.1192C271.573 49.3121 271.453 49.4854 271.299 49.6271C271.146 49.7688 270.964 49.8755 270.766 49.9399C270.567 50.0043 270.357 50.0248 270.15 50C266.36 50 266.66 50.24 267.22 46.89C267.95 42.48 268.6 38.07 269.3 33.65C269.39 33.05 269.49 32.37 270.24 32.31C271.17 32.25 272.24 31.84 272.96 32.74C273.34 33.21 273.52 33.15 273.9 32.85C274.436 32.4722 275.043 32.2081 275.684 32.074C276.326 31.9398 276.988 31.9385 277.63 32.07C278.287 32.1388 278.91 32.4006 279.419 32.8223C279.928 33.244 280.3 33.8069 280.49 34.44C280.969 35.7421 281.117 37.1426 280.921 38.5161C280.726 39.8895 280.193 41.193 279.37 42.31C277.69 44.66 275.31 45.18 272.48 43.9ZM276 37.59C276.015 37.3269 276.015 37.0631 276 36.8C276.009 36.5557 275.941 36.3148 275.807 36.1106C275.672 35.9064 275.478 35.7489 275.25 35.66C275.01 35.5896 274.753 35.6062 274.525 35.7069C274.296 35.8075 274.11 35.9857 274 36.21C273.62 36.7859 273.364 37.4341 273.247 38.1139C273.13 38.7937 273.155 39.4903 273.32 40.16C273.59 41.16 274.38 41.26 275.09 40.49C275.753 39.6751 276.078 38.6374 276 37.59V37.59Z" fill="white"/>
<path fill-rule="evenodd" clip-rule="evenodd" d="M259.25 43.92C259.01 45.44 258.72 46.92 258.54 48.43C258.42 49.43 257.95 49.97 256.9 49.98C253.13 49.98 253.43 50.21 253.99 46.84C254.72 42.43 255.38 38.01 256.07 33.6C256.16 33.04 256.24 32.39 256.92 32.3C257.86 32.19 258.92 31.84 259.67 32.65C260.07 33.07 260.21 33.13 260.67 32.82C264.05 30.69 267.42 32.41 267.67 36.38C267.792 37.9113 267.538 39.4492 266.93 40.86C265.49 44.22 262.67 45.36 259.25 43.92ZM262.77 37.59C262.785 37.3302 262.785 37.0698 262.77 36.81C262.78 36.5655 262.714 36.3239 262.582 36.1181C262.449 35.9123 262.257 35.7523 262.03 35.66C261.791 35.5868 261.535 35.6009 261.306 35.6999C261.077 35.7988 260.89 35.9761 260.78 36.2C260.397 36.7744 260.137 37.4219 260.016 38.1017C259.896 38.7815 259.918 39.4789 260.08 40.15C260.35 41.15 261.15 41.26 261.85 40.5C262.522 39.6855 262.851 38.6425 262.77 37.59V37.59Z" fill="white"/>
<path fill-rule="evenodd" clip-rule="evenodd" d="M234.77 32.88C235.717 32.2793 236.818 31.9666 237.94 31.98C239.76 32.07 240.94 33.05 241.01 34.86C241.1 37.86 240.34 40.7 239.87 43.6C239.75 44.39 238.94 44.42 238.32 44.37C237.32 44.27 236.11 44.83 235.32 43.88C235.12 43.65 235.26 43.08 235.32 42.68C235.57 41.06 235.87 39.45 236.1 37.83C236.18 37.29 236.5 36.49 235.64 36.34C235.462 36.3104 235.28 36.3176 235.104 36.3612C234.929 36.4048 234.765 36.4839 234.622 36.5935C234.478 36.7032 234.359 36.8411 234.271 36.9987C234.183 37.1564 234.128 37.3304 234.11 37.51C233.86 38.71 233.69 39.93 233.49 41.14L233.28 42.36C232.97 44.36 232.9 44.36 230.86 44.36C228.12 44.36 228.15 44.36 228.6 41.69C229.35 37.21 230.07 32.69 230.73 28.22C230.9 27.09 231.36 26.53 232.53 26.59C233.2 26.59 233.87 26.59 234.53 26.59C235.43 26.59 235.72 27.04 235.53 27.88C235.28 29.54 235 31.15 234.77 32.88Z" fill="white"/>
<path fill-rule="evenodd" clip-rule="evenodd" d="M276.27 24.66C273.89 24.66 273.88 24.66 274.27 22.37C274.71 19.53 275.17 16.7 275.62 13.86C275.71 13.26 275.83 12.58 276.62 12.55C277.57 12.55 278.75 12.01 279.38 13.1C279.79 13.8 280 13.58 280.43 13.26C281.363 12.5572 282.513 12.2034 283.68 12.26C285.62 12.33 286.81 13.36 286.84 15.26C286.84 18.15 286.12 20.95 285.72 23.79C285.68 23.971 285.589 24.1372 285.46 24.27C285 24.75 281.69 24.81 281.23 24.36C280.77 23.91 281.01 23.45 281.07 22.99C281.32 21.37 281.63 19.75 281.86 18.13C281.93 17.59 282.27 16.78 281.45 16.6C281.264 16.561 281.072 16.5623 280.886 16.6038C280.701 16.6454 280.526 16.7262 280.375 16.8409C280.223 16.9555 280.098 17.1014 280.007 17.2685C279.917 17.4357 279.863 17.6204 279.85 17.81C279.57 19.31 279.36 20.81 279.1 22.33C278.62 24.67 278.61 24.67 276.27 24.66Z" fill="white"/>
<path fill-rule="evenodd" clip-rule="evenodd" d="M248.84 32C253.07 32 255.09 34.66 254.23 39.13C254.047 40.1653 253.631 41.1455 253.014 41.996C252.396 42.8465 251.592 43.545 250.664 44.0386C249.735 44.5321 248.707 44.8076 247.656 44.8443C246.606 44.8809 245.56 44.6777 244.6 44.25C242.49 43.38 241.6 41.57 241.74 38.73C242 34.44 244.65 32 248.84 32ZM249.47 37.8C249.47 37.37 249.47 37.22 249.47 37.07C249.47 36.49 249.3 35.91 248.7 35.71C248.1 35.51 247.7 36.01 247.35 36.47C246.71 37.528 246.479 38.7834 246.7 40C246.712 40.2264 246.794 40.4436 246.933 40.6224C247.073 40.8011 247.263 40.9329 247.48 41C247.703 41.0408 247.933 41.0106 248.137 40.9137C248.342 40.8168 248.511 40.6581 248.62 40.46C249.175 39.6654 249.472 38.7192 249.47 37.75V37.8Z" fill="white"/>
<path fill-rule="evenodd" clip-rule="evenodd" d="M286.39 39.79C286.432 40.0788 286.58 40.3415 286.806 40.5265C287.032 40.7115 287.319 40.8055 287.61 40.79C288.395 40.8129 289.174 40.6448 289.88 40.3C290.65 39.96 291.37 39.76 291.88 40.73C292.152 41.1562 292.269 41.6626 292.213 42.1648C292.156 42.667 291.929 43.1348 291.57 43.49C289.78 44.83 284.97 45.29 283 43.44C281.03 41.59 281.09 39.24 281.77 36.9C282.93 32.84 286.44 31.39 290.3 32.11C290.982 32.1981 291.616 32.5083 292.104 32.9927C292.592 33.4771 292.907 34.1088 293 34.79C293.162 35.5077 293.105 36.2576 292.836 36.9423C292.566 37.6271 292.098 38.2151 291.49 38.63C290.166 39.5086 288.583 39.9106 287 39.77C286.81 39.76 286.63 39.78 286.39 39.79ZM287.07 37.39C287.84 37.39 288.61 36.63 288.56 36.02C288.562 35.9367 288.546 35.854 288.513 35.7774C288.481 35.7009 288.432 35.6323 288.37 35.5763C288.308 35.5203 288.235 35.4783 288.156 35.453C288.077 35.4278 287.993 35.4199 287.91 35.43C287.36 35.43 286.59 36.43 286.57 37.02C286.55 37.44 286.81 37.39 287.07 37.39Z" fill="white"/>
<path fill-rule="evenodd" clip-rule="evenodd" d="M237.53 20.17C237.589 20.4379 237.743 20.6755 237.964 20.8389C238.184 21.0024 238.456 21.0809 238.73 21.06C239.475 21.082 240.215 20.9278 240.89 20.61C241.67 20.27 242.45 19.95 243 21C243.265 21.4299 243.379 21.9363 243.323 22.4384C243.267 22.9406 243.044 23.4093 242.69 23.77C240.85 25.29 236.01 25.33 234.21 23.77C232.09 21.94 232.21 19.55 232.88 17.17C234.05 13.11 237.57 11.66 241.42 12.38C242.095 12.4762 242.72 12.79 243.2 13.2737C243.68 13.7574 243.989 14.3846 244.08 15.06C244.243 15.7787 244.185 16.5297 243.913 17.2148C243.642 17.9 243.17 18.4873 242.56 18.9C241.243 19.766 239.669 20.1543 238.1 20C237.91 20 237.72 20 237.53 20.17ZM239.68 16.31C239.68 15.85 239.36 15.61 238.95 15.71C238.614 15.8201 238.318 16.025 238.096 16.3001C237.874 16.5751 237.736 16.9085 237.7 17.26C237.61 17.65 237.87 17.67 238.16 17.66C238.91 17.63 239.71 16.92 239.68 16.31V16.31Z" fill="white"/>
<path fill-rule="evenodd" clip-rule="evenodd" d="M192 22.7C191.567 23.3371 190.99 23.8636 190.316 24.2371C189.642 24.6105 188.89 24.8205 188.12 24.85C185.99 24.91 184.83 23.85 184.78 21.7C184.89 19.6849 185.14 17.68 185.53 15.7C185.62 15 185.77 14.31 185.87 13.61C185.93 13.19 185.95 12.78 186.48 12.67C187.14 12.4702 187.849 12.5128 188.48 12.79C188.76 12.94 188.63 13.34 188.59 13.63C188.27 15.69 187.937 17.75 187.59 19.81C187.546 19.9908 187.516 20.1747 187.5 20.36C187.5 21.19 187.17 22.2 188.25 22.59C189.33 22.98 190.04 22.32 190.69 21.59C191.274 20.865 191.623 19.9788 191.69 19.05C191.97 17.21 192.267 15.37 192.58 13.53C192.72 12.66 193.31 12.42 194.58 12.53C195.58 12.64 195.32 13.26 195.23 13.84C194.89 15.94 194.51 18.03 194.23 20.14C194.12 20.98 193.82 22.05 194.89 22.51C195.96 22.97 196.69 22.26 197.29 21.51C198.063 20.4991 198.589 19.3219 198.827 18.072C199.064 16.8221 199.007 15.534 198.66 14.31C198.47 13.43 198.25 12.69 199.45 12.45C200.65 12.21 201.21 12.45 201.45 13.73C202.01 17.08 201.55 20.2 199.14 22.8C198.601 23.4281 197.932 23.932 197.179 24.2773C196.426 24.6225 195.608 24.8008 194.78 24.8C193.23 24.84 192.54 24.33 192 22.7Z" fill="white"/>
<path fill-rule="evenodd" clip-rule="evenodd" d="M222.15 44.63C221.008 44.7034 219.867 44.4758 218.84 43.97C217.73 43.44 217.46 42.39 218.09 41.13C218.72 39.87 219.2 39.84 220.44 40.49C220.99 40.8066 221.588 41.0329 222.21 41.16C222.6 41.23 223.13 41.34 223.21 40.82C223.29 40.3 222.81 40.26 222.48 40.14C221.95 39.95 221.4 39.84 220.88 39.63C219.75 39.15 218.71 38.54 218.53 37.18C218.353 36.4268 218.402 35.6382 218.671 34.9127C218.939 34.1871 219.415 33.5567 220.04 33.1C221.061 32.4165 222.239 32.0038 223.464 31.9006C224.688 31.7974 225.919 32.0071 227.04 32.51C228.04 32.88 228.29 34.15 227.73 35.31C227.17 36.47 226.73 36.5 225.55 35.93C224.908 35.5431 224.169 35.3487 223.42 35.37C223.19 35.37 222.95 35.46 222.93 35.72C222.91 35.98 223.12 36.03 223.3 36.09C223.84 36.26 224.37 36.41 224.9 36.6C226.99 37.35 227.82 38.49 227.72 40.49C227.702 41.3941 227.383 42.2664 226.812 42.9677C226.241 43.6691 225.452 44.1592 224.57 44.36C223.781 44.5693 222.966 44.6603 222.15 44.63Z" fill="white"/>
<path fill-rule="evenodd" clip-rule="evenodd" d="M248.14 24.89C247.002 24.9656 245.864 24.7415 244.84 24.24C243.73 23.7 243.47 22.64 244.1 21.39C244.73 20.14 245.21 20.11 246.46 20.77C247.046 21.105 247.685 21.3352 248.35 21.45C248.71 21.5 249.17 21.55 249.27 21.07C249.37 20.59 248.91 20.55 248.62 20.44C248.06 20.23 247.47 20.11 246.92 19.89C245.79 19.42 244.75 18.8 244.58 17.43C244.412 16.6758 244.467 15.8891 244.736 15.165C245.006 14.441 245.48 13.8106 246.1 13.35C247.131 12.6653 248.318 12.2538 249.551 12.1541C250.785 12.0544 252.023 12.2698 253.15 12.78C254.15 13.15 254.38 14.44 253.81 15.59C253.24 16.74 252.81 16.76 251.63 16.19C251.024 15.8305 250.334 15.6373 249.63 15.63C249.4 15.63 249.13 15.63 249.06 15.91C248.99 16.19 249.31 16.32 249.53 16.4C250.02 16.57 250.53 16.7 251.02 16.87C253.08 17.61 253.9 18.73 253.84 20.66C253.848 21.5901 253.537 22.4949 252.958 23.223C252.379 23.9511 251.568 24.4584 250.66 24.66C249.837 24.8664 248.987 24.944 248.14 24.89Z" fill="white"/>
<path fill-rule="evenodd" clip-rule="evenodd" d="M192.08 39.46C192.039 38.3948 192.221 37.3328 192.616 36.3424C193.01 35.352 193.608 34.4553 194.37 33.71C195.214 32.9381 196.258 32.4198 197.383 32.2146C198.508 32.0095 199.668 32.1257 200.73 32.55C201.235 32.7092 201.692 32.9948 202.056 33.3798C202.42 33.7648 202.679 34.2365 202.81 34.75C203.264 36.11 203.351 37.5655 203.063 38.9699C202.775 40.3744 202.122 41.6781 201.17 42.75C200.481 43.5203 199.598 44.0924 198.614 44.4071C197.629 44.7218 196.578 44.7677 195.57 44.54C193.13 44.1 192 42.37 192.08 39.46ZM194.83 39.05C194.77 41.05 195.35 42.14 196.53 42.42C197.207 42.4858 197.886 42.3252 198.462 41.9632C199.037 41.6012 199.476 41.0584 199.71 40.42C200.26 39.2718 200.502 38 200.41 36.73C200.457 36.2248 200.338 35.718 200.071 35.2867C199.804 34.8553 199.403 34.5229 198.93 34.34C198.42 34.1913 197.877 34.208 197.377 34.3877C196.878 34.5674 196.448 34.9008 196.15 35.34C195.305 36.393 194.84 37.7001 194.83 39.05V39.05Z" fill="white"/>
<path fill-rule="evenodd" clip-rule="evenodd" d="M301.09 36.33C299.19 36.25 298.7 36.66 298.44 38.52C298.22 40.03 297.96 41.52 297.74 43.05C297.74 43.2375 297.7 43.4229 297.623 43.5941C297.547 43.7654 297.435 43.9186 297.296 44.044C297.156 44.1694 296.992 44.264 296.813 44.3219C296.635 44.3798 296.446 44.3996 296.26 44.38C295.44 44.38 294.62 44.38 293.8 44.38C293.658 44.3982 293.514 44.3798 293.381 44.3266C293.248 44.2734 293.131 44.187 293.041 44.0758C292.95 43.9646 292.89 43.8322 292.866 43.6912C292.841 43.5501 292.853 43.4051 292.9 43.27C293.413 39.9366 293.933 36.6233 294.46 33.33C294.464 33.1789 294.498 33.0301 294.561 32.8927C294.624 32.7554 294.715 32.6324 294.827 32.5312C294.939 32.4301 295.071 32.353 295.214 32.3046C295.358 32.2563 295.509 32.2377 295.66 32.25C296.66 32.3 297.79 31.81 298.37 33.18C298.56 33.63 298.87 33.18 299.06 33.01C300.005 32.2545 301.206 31.8959 302.41 32.01C302.75 32.01 303.14 32.01 303.3 32.37C303.493 32.8532 303.575 33.3735 303.541 33.8927C303.506 34.4119 303.355 34.9167 303.1 35.37C302.993 35.7384 302.745 36.0499 302.41 36.2371C302.075 36.4242 301.68 36.472 301.31 36.37C301.238 36.3516 301.164 36.3383 301.09 36.33V36.33Z" fill="white"/>
<path fill-rule="evenodd" clip-rule="evenodd" d="M203.06 19.87C203.022 18.8196 203.192 17.7719 203.559 16.787C203.926 15.8021 204.484 14.8993 205.2 14.13C205.944 13.3841 206.875 12.8507 207.894 12.5852C208.914 12.3197 209.986 12.3317 211 12.62C211.578 12.7173 212.108 13.0038 212.506 13.4345C212.904 13.8652 213.148 14.4158 213.2 15C213.348 15.7398 213.263 16.5071 212.956 17.1966C212.65 17.886 212.138 18.4636 211.49 18.85C210.093 19.6548 208.489 20.0272 206.88 19.92C205.7 19.92 205.59 20.09 206.01 21.2C206.43 22.31 207.58 22.93 209.16 22.54C209.695 22.3838 210.215 22.1761 210.71 21.92C211.18 21.7 211.65 21.51 211.95 22.12C212.25 22.73 212.36 23.37 211.76 23.73C210.845 24.3537 209.789 24.7396 208.687 24.8531C207.586 24.9666 206.473 24.804 205.45 24.38C203.41 23.52 203.05 21.7 203.06 19.87ZM207.51 17.92C208.434 17.9302 209.338 17.6466 210.09 17.11C210.357 16.9297 210.558 16.6667 210.661 16.3613C210.764 16.056 210.763 15.7252 210.66 15.42C210.543 15.1211 210.328 14.871 210.05 14.711C209.772 14.551 209.447 14.4907 209.13 14.54C208.531 14.5878 207.958 14.8076 207.481 15.173C207.004 15.5385 206.642 16.034 206.44 16.6C205.83 17.85 205.91 18 207.51 17.92Z" fill="white"/>
<path fill-rule="evenodd" clip-rule="evenodd" d="M190.23 34.45C189.23 34.16 188.83 34.71 188.69 35.89C188.38 38.4 187.91 40.89 187.5 43.4C187.44 43.81 187.44 44.29 186.9 44.33C186.237 44.5078 185.534 44.4621 184.9 44.2C184.56 43.99 184.77 43.58 184.82 43.26C185.24 40.61 185.63 37.96 186.07 35.31C186.16 34.75 186.2 34.31 185.44 34.44C185.08 34.44 184.6 34.53 184.65 33.96C184.7 33.39 184.51 32.72 185.36 32.67C186.36 32.62 186.64 32.05 186.75 31.1C187.2 27.36 190.04 25.57 193.58 26.7C194.42 26.96 194.84 27.46 194.58 28.36C194.39 29.09 194.01 29.48 193.2 29.11C192.863 28.9527 192.511 28.8288 192.15 28.74C191.769 28.6305 191.364 28.6366 190.987 28.7577C190.609 28.8788 190.276 29.1093 190.03 29.42C189.486 30.2311 189.213 31.1939 189.25 32.17C189.25 32.44 189.57 32.41 189.78 32.41C190.23 32.41 190.68 32.41 191.13 32.41C191.58 32.41 192.36 32.08 192.29 33.09C192.24 33.9 192.09 34.6 191.01 34.44C190.75 34.4255 190.489 34.4288 190.23 34.45V34.45Z" fill="white"/>
<path fill-rule="evenodd" clip-rule="evenodd" d="M256.56 24.64C254.14 24.64 254.14 24.64 254.51 22.29C254.95 19.5 255.41 16.71 255.83 13.91C255.97 13 256.36 12.47 257.34 12.49C258.12 12.49 258.9 12.49 259.69 12.49C260.48 12.49 260.8 12.82 260.69 13.61C260.17 16.88 259.69 20.16 259.16 23.43C259.152 23.5991 259.111 23.765 259.038 23.9177C258.965 24.0704 258.862 24.2069 258.735 24.3189C258.608 24.4309 258.46 24.5161 258.299 24.5696C258.138 24.6231 257.969 24.6436 257.8 24.63L256.56 24.64Z" fill="white"/>
<path fill-rule="evenodd" clip-rule="evenodd" d="M208.57 33.84C209.68 33.03 210.62 32.26 211.89 32.24C212.53 32.24 213.37 32.01 213.34 33.09C213.31 34.17 212.98 34.92 211.91 34.76C211.444 34.7073 210.972 34.7521 210.525 34.8916C210.077 35.031 209.663 35.2621 209.31 35.57C209.038 35.7629 208.809 36.0099 208.637 36.2955C208.464 36.5812 208.353 36.8993 208.31 37.23C208.02 39.23 207.7 41.14 207.4 43.1C207.351 43.3648 207.24 43.6145 207.077 43.8288C206.914 44.043 206.703 44.216 206.461 44.3337C206.218 44.4515 205.952 44.5106 205.682 44.5065C205.413 44.5024 205.149 44.4351 204.91 44.31C204.59 44.12 204.63 43.81 204.67 43.51C205.21 40.01 205.753 36.51 206.3 33.01C206.39 32.44 206.84 32.34 207.3 32.33C207.76 32.32 208.3 32.33 208.46 32.94C208.515 33.2375 208.552 33.538 208.57 33.84V33.84Z" fill="white"/>
<path fill-rule="evenodd" clip-rule="evenodd" d="M259 6.87999H259.78C260.78 6.87999 261.55 7.17999 261.65 8.34999C261.78 9.83999 261.34 10.65 260.2 11C259.696 11.1408 259.172 11.1982 258.65 11.17C256.79 11.17 256.18 10.67 256.18 9.22998C256.18 7.52998 256.82 6.91999 258.67 6.85999C258.78 6.85999 258.89 6.85999 259 6.85999V6.87999Z" fill="white"/>
</g>
<defs>
<clipPath id="clip0_9_163">
<rect width="303.57" height="56.84" fill="white"/>
</clipPath>
</defs>
</svg>
