<svg xmlns="http://www.w3.org/2000/svg" xmlns:xlink="http://www.w3.org/1999/xlink" viewBox="0 0 157.31 181.75"><defs><style>.cls-1{fill:#e6ded3;opacity:0.8;}.cls-1,.cls-2{fill-rule:evenodd;}.cls-2{fill:none;stroke:#e6ded3;stroke-miterlimit:10;}.cls-3{fill:#dca88c;}.cls-4{fill:#31253d;}.cls-5{fill:#c88c7f;}.cls-6{fill:#ba5176;}.cls-7{fill:#983a5b;}.cls-8{fill:#d07f4f;}.cls-9{fill:#dbe2e2;}.cls-10{fill:#c66765;}.cls-11{fill:url(#linear-gradient);}.cls-12{fill:#d3dcdc;}.cls-13{fill:#d59852;}.cls-14{fill:#b8c2c5;}</style><linearGradient id="linear-gradient" x1="120.33" y1="22.2" x2="125.74" y2="9.79" gradientUnits="userSpaceOnUse"><stop offset="0.35" stop-color="#de9960"/><stop offset="0.55" stop-color="#e2ab61"/><stop offset="0.78" stop-color="#e5b762"/><stop offset="1" stop-color="#e6bb62"/></linearGradient></defs><title>Ativo 9</title><g id="Camada_2" data-name="Camada 2"><g id="Isolation_Mode" data-name="Isolation Mode"><path class="cls-1" d="M64.75,108.21h37c9.56,0,16.83,4,20.65,12.9,3.39,7.88,2,15.43-3.85,21.66-6.56,7-14.75,8.75-23.73,5.3-2.44-.94-3.18-.33-4.21,1.8-5.81,12-15.65,18.17-28.91,17.72-13-.45-22.4-7.09-27.44-19.29-.83-2-1.59-2.44-3.82-2.08-12.35,2-22.8-5.9-23.63-17.66-.8-11.21,8.31-20.28,20.55-20.34C39.81,108.16,52.28,108.21,64.75,108.21Z"/><path class="cls-2" d="M20.93,31.27H8.22c-3.29,0-5.79-1.38-7.1-4.44a6.53,6.53,0,0,1,1.33-7.44,7,7,0,0,1,8.15-1.82c.84.32,1.09.11,1.45-.62A10,10,0,0,1,22,10.86a10,10,0,0,1,9.44,6.63c.28.69.54.84,1.31.71,4.24-.69,7.83,2,8.12,6.07.28,3.86-2.86,7-7.06,7S25.21,31.27,20.93,31.27Z"/><path class="cls-3" d="M129.55,177.37a5.84,5.84,0,0,1-.06-6c6.67-11.69,35.27-64.35,19.1-80.09-12.73-12.4-65.26-8-65.26-8s-.62,1-1.48,2.68a4.81,4.81,0,0,0-3.27,3.83c-.65,2.92-3.93,11.86,2.18,17.69,9.88,9.41,46.6-1.11,49.31,4.47,3,6.16-14,61.55-14,61.55h.47c1,1.17,5,2.6,6.76,3.6a9.22,9.22,0,0,0,4.64,1.24h2.51A3,3,0,0,1,129.55,177.37Z"/><path class="cls-4" d="M116,173.46h.61a4.14,4.14,0,0,1,2.63.95,31.28,31.28,0,0,0,4,2.67,9.27,9.27,0,0,0,4.63,1.23h2.51a1.41,1.41,0,0,0,.24.13c1.43.58,3.12.84,3.83,3.31h-7.15a5.79,5.79,0,0,1-3.77-1.39l-3-2.52a1,1,0,0,0-1.16-.09,1,1,0,0,0-.48.89v3.11h-1.69S114.75,175.31,116,173.46Z"/><path class="cls-3" d="M101.26,177.37a5.86,5.86,0,0,1-.07-6C107.8,159.67,136.14,107,120,91.27c-6.73-6.56-18.7-8.43-28.49-8.73a19.92,19.92,0,0,1-.33,4.69c-.27,1.38-.51,2.77-.74,4.16,0,.34-.22,1.72-.28,2.31q-.39,3.85-.61,7.72c-.2,3.3-.31,6.6-.4,9.91,6.64-.33,12.66-2.8,14.31.58,3,6.16-15.69,61.55-15.69,61.55h.47c1,1.17,5,2.6,6.76,3.6a9.22,9.22,0,0,0,4.64,1.24h2.51A3,3,0,0,1,101.26,177.37Z"/><path class="cls-4" d="M87.75,173.46h.61a4.14,4.14,0,0,1,2.63.95,31.28,31.28,0,0,0,4,2.67,9.3,9.3,0,0,0,4.63,1.23h2.51l.24.13c1.43.58,3.12.84,3.83,3.31H99.05a5.79,5.79,0,0,1-3.77-1.39l-3-2.52a1,1,0,0,0-1.16-.09,1,1,0,0,0-.48.89v3.11H89S86.46,175.31,87.75,173.46Z"/><path class="cls-5" d="M109.58,132.26l-8-5.17c-.4,1.67-.83,3.41-1.31,5.21C104.19,132.4,109.58,132.26,109.58,132.26Z"/><path class="cls-5" d="M137.81,134.94l-10.21-3.62c-.28,1.22-.57,2.46-.88,3.72C130.36,135.21,137.81,134.94,137.81,134.94Z"/><path class="cls-6" d="M148.59,91.27c-9.08-8.84-38.41-9.16-54.48-8.61a149.41,149.41,0,0,0-17.36-.07s-10.75,16.23-1,25.92c4.3,4.28,23.18,3.87,27.79,3.53.84,2.14-.41,9-2.52,17.48a38.55,38.55,0,0,0,18.12,3.38c2.81-7.73,5-15.59,5.62-22.58,2.85,0,4.8.46,5.35,1.59,1.1,2.25-.52,11-2.91,21.29a36.69,36.69,0,0,0,20.07.65C153.42,117.06,156.81,99.27,148.59,91.27Z"/><path class="cls-7" d="M124.94,106.24h0a.48.48,0,0,1-.44-.51c1.05-13.88-11.4-18.51-11.53-18.56a.48.48,0,0,1-.29-.61.47.47,0,0,1,.61-.28c.14,0,13.27,4.93,12.16,19.52A.48.48,0,0,1,124.94,106.24Z"/><path class="cls-6" d="M155.53,122.27h0a.17.17,0,0,1-.13-.21c0-.15,3.24-15.27.46-25.77-2-7.43-10-10.26-10.09-10.29a.18.18,0,0,1-.11-.22.17.17,0,0,1,.23-.11c.08,0,8.29,2.91,10.31,10.53,2.81,10.58-.42,25.78-.46,25.93A.16.16,0,0,1,155.53,122.27Z"/><path class="cls-3" d="M134.49,167.37a.16.16,0,0,1-.09,0,.18.18,0,0,1-.06-.24c7.47-12.19,12.94-27.14,13-27.29a.18.18,0,0,1,.23-.1.18.18,0,0,1,.11.23c0,.14-5.54,15.12-13,27.34A.16.16,0,0,1,134.49,167.37Z"/><path class="cls-8" d="M79,11.21S77.8,9.48,74.17,9,67,13.39,67.69,16.73s3.36,7.7,2.24,9.48-4.46.67-6.35,3.71.56,9.73,8,10.51,10.25-11.91,9-16.41S79,11.21,79,11.21Z"/><path class="cls-9" d="M108.77,13.66l.55-.18a4.13,4.13,0,0,0,2-1.43l7.84-8.79L123,16.16V29l-9.59-5.13a4.14,4.14,0,0,0-2.37-.67l-1.31,0A16.58,16.58,0,0,1,108.77,13.66Z"/><path class="cls-10" d="M101,17h0a1.93,1.93,0,0,1,1.19-1.13l6.61-2.18a16.58,16.58,0,0,0,.91,9.59h0a1.06,1.06,0,0,0-1,1.19l.7,5.14-1.21.21a3.34,3.34,0,0,1-3.85-2.73L104,25.18a2.92,2.92,0,0,0-1.6-2.18,1.29,1.29,0,0,1-.42-.29A15.63,15.63,0,0,1,101,17Z"/><path class="cls-11" d="M128,15.31c1.3,7.64.13,14.22-2.63,14.69s-6-5.34-7.36-13-.14-14.23,2.62-14.7S126.65,7.66,128,15.31Z"/><path class="cls-4" d="M120.62,26.08a.44.44,0,0,1-.4-.25,32.92,32.92,0,0,1-2.69-8.74,33,33,0,0,1-.41-8.74.44.44,0,0,1,.88.09,32.51,32.51,0,0,0,.41,8.5,32,32,0,0,0,2.61,8.5.44.44,0,0,1-.2.59A.49.49,0,0,1,120.62,26.08Z"/><path class="cls-10" d="M131.82,14.65h0a2.24,2.24,0,0,1-1.5,2.51L125,19a3.15,3.15,0,0,1-4.12-2.45h0A3.15,3.15,0,0,1,124,12.84l5.62-.07A2.25,2.25,0,0,1,131.82,14.65Z"/><path class="cls-4" d="M102.43,19.34a.45.45,0,0,1-.11-.88l3-.81a.44.44,0,0,1,.54.31.44.44,0,0,1-.31.55l-3,.81Z"/><path class="cls-4" d="M102.69,20.87a.44.44,0,0,1-.11-.87l3-.81a.44.44,0,0,1,.55.31.46.46,0,0,1-.32.55l-3,.81Z"/><path class="cls-4" d="M128.73,5.82a.43.43,0,0,1-.38-.21A.44.44,0,0,1,128.5,5L136.63.06a.45.45,0,0,1,.61.16.44.44,0,0,1-.15.61L129,5.76A.46.46,0,0,1,128.73,5.82Z"/><path class="cls-4" d="M133.54,12.61a.45.45,0,0,1-.08-.89L143.68,10a.45.45,0,0,1,.15.88L133.61,12.6Z"/><path class="cls-4" d="M141.33,22.08h0L132.6,22a.45.45,0,0,1-.44-.45.47.47,0,0,1,.46-.44l8.71.13a.45.45,0,0,1,.44.46A.44.44,0,0,1,141.33,22.08Z"/><path class="cls-12" d="M127.46,60.24c-1.76-11.16-2-16.67-5.18-22.72C119.89,33,110.57,33,110.57,33l-4.24,1.3a8.36,8.36,0,0,0,.26,4c.75,2.86,1.71,5.92,2.7,8.86-2.11-5.27-4.65-10.1-5.78-11.26a17,17,0,0,0-9.9-4.95s0,43.6,18.3,47.63C122.75,80.88,129.81,75.17,127.46,60.24Z"/><path class="cls-12" d="M106.69,82.57c-.08-.37-3.47-14.38-3.18-19,.68-10.65,4.66-18.6,1.06-24.65C99,29.59,87.38,29.46,81.86,30S60.71,35.5,60.35,47.66c0,.37,18,10.88,16.45,33a4.93,4.93,0,0,1-.56,1.87C80.24,85.74,97.44,86.93,106.69,82.57Z"/><path class="cls-8" d="M90.12,16.11A7.49,7.49,0,0,0,91.3,9.82c-.84-4-7.48-4.13-9-2.29-1.27,1.57-1.07,3-2.79,2.79s-4.91,2.06-4.8,4.18,1.45,3.9.67,4.93-1.39,3.76.5,5.32,6.07.8,7.41.26S90.12,16.11,90.12,16.11Z"/><path class="cls-3" d="M86.25,25.85l1.4,3.33a2.3,2.3,0,0,1-1.72,3.15h0a2.3,2.3,0,0,1-2.66-1.95l-.85-6.13Z"/><path class="cls-5" d="M86.51,26.71h.11l.85,2a4,4,0,0,1-1.93-.37,7,7,0,0,1-2-2.42Z"/><path class="cls-3" d="M80.63,20.61a1.59,1.59,0,0,1,.78,0l-.52-1.86c-.13-1.57,1-3.22,4.25-4.13,2.18-.6,3.37.43,4.31,2.68,1.2,2.87,1.93,6.28,1.09,7.57-.63,1-1.94,1.4-4,1.87a3.46,3.46,0,0,1-4.09-2.46h0a1.75,1.75,0,0,1-2.18-.6C79.67,22.72,79.74,20.85,80.63,20.61Z"/><path class="cls-13" d="M59,109.87c0,3-1.75-.61-3.66.36s.88,5.24,5.36,4.43,4.53-6.51,1.9-9.38c-1-1.11-4.22-4.12-7.77-7.62a21.22,21.22,0,0,1-4.42,7.92C55.39,107.63,59,109,59,109.87Z"/><path class="cls-12" d="M70.76,33.58s-42,24.54-47,41.89c-4.65,16.29,9.23,33,26.64,30.11a21.22,21.22,0,0,0,4.42-7.92c.66-8.49-12-12.19-12.31-14.72-.77-6.73,18.91-23.57,26.05-27C72.09,54.3,70.76,33.58,70.76,33.58Z"/><path class="cls-3" d="M59,109.87c0,3-1.75-.61-3.66.36s.88,5.24,5.36,4.43,4.53-6.51,1.9-9.38c-1-1.11-4.22-4.12-7.77-7.62a21.22,21.22,0,0,1-4.42,7.92C55.39,107.63,59,109,59,109.87Z"/><path class="cls-3" d="M108.66,24.44s-.16-.85-.69-.53.44,3.93,1.22,4.46S109.31,25.39,108.66,24.44Z"/><path class="cls-14" d="M116.48,68.33h0a.45.45,0,0,1-.44-.45c0-7.17-6.29-18.64-6.35-18.76a.44.44,0,0,1,.17-.6.44.44,0,0,1,.61.17c.26.48,6.52,11.8,6.47,19.2A.45.45,0,0,1,116.48,68.33Z"/><path class="cls-14" d="M104.63,79.47a.44.44,0,0,1-.44-.4c-.07-.7-1.65-17.09-.27-22.46S105.05,46,103.14,43c-2.56-4.1-5.48-8.42-5.51-8.47a.44.44,0,0,1,.12-.62.46.46,0,0,1,.62.12s3,4.39,5.53,8.49c2,3.25,2.37,8.61.89,14.34-1.35,5.23.27,22,.29,22.15a.46.46,0,0,1-.41.49Z"/><path class="cls-14" d="M65.88,51.71c-1-.55-2.27,4.47-3,7.88A41,41,0,0,1,68.6,56a1.2,1.2,0,0,0,.34-.23S67.35,52.54,65.88,51.71Z"/><path class="cls-12" d="M26.58,66.49a.19.19,0,0,1-.12,0,.22.22,0,0,1-.06-.31C35.9,52,54.85,41.36,55,41.26a.22.22,0,0,1,.3.08.24.24,0,0,1-.08.31c-.19.1-19,10.7-28.49,24.74A.26.26,0,0,1,26.58,66.49Z"/><path class="cls-12" d="M129.6,70h-.06a.22.22,0,0,1-.15-.28c3.26-10.21-2.43-25.46-2.48-25.62a.22.22,0,1,1,.41-.15c.06.15,5.8,15.55,2.5,25.91A.23.23,0,0,1,129.6,70Z"/><path class="cls-3" d="M110.09,31.18a3.9,3.9,0,0,0-2.07-2.5,30,30,0,0,1-3.09-1.58c-.38-.38.69-1.42.49-2s-1.21.28-1.8,1.66c-.32.74.21,1.85.78,2.72a13.52,13.52,0,0,1,1.67,3.79l.26,1,4.24-1.3Z"/></g></g></svg>