<svg width="289" height="361" viewBox="0 0 289 361" fill="none" xmlns="http://www.w3.org/2000/svg">
<path d="M62.5 1.5L1.5 55M73 1.5L1.5 68M86 1.5L1.5 83M97.5 5.5L1.5 96M109 5.5L1.5 108.5M119 8L1.5 123M129 11.5L1.5 136.5M138.5 13.5L1.5 150M147.5 17.5L1.5 162.5M156.5 21.5L1.5 173.5M166 26L1.5 186M174.5 29L1.5 197.5M182.5 33L1.5 211.5M189.5 39.5L1.5 223.5M195 44L2.5 235M203 50L2.5 249.5M213 54.5L2.5 263M2.5 276L220.5 59M2.5 290L226.5 64.5M2.5 303L231.5 72M260.5 322L224 359M269.5 300.5L212 359M277.5 279L199 359M281.5 264L187.5 359M283 249L176 359M287 233.5L161.5 359M285.5 222.5L149.5 359M285.5 208.5L137 359M285.5 196.5L124.5 358M283 186L111 358M100.5 358L281.5 176M87 358L277.5 165.5M74.5 358L273.5 156M62.5 359L269.5 148M49.5 359C50.3 357.8 203.5 202.667 267.5 137.5M38 358L267.5 128M22.5 358L261.5 120.5M9 358L256.5 111M2.5 352.5L254 102.5M2.5 340L248.5 94.5M2.5 325.5L244.5 85.5M2.5 315.5L239 77.5" stroke="white" stroke-width="3"/>
</svg>
